<svg version="1.1" id="Layer_1" xmlns="http://www.w3.org/2000/svg" xmlns:xlink="http://www.w3.org/1999/xlink" x="0px" y="0px" viewBox="0 0 200 200" enable-background="new 0 0 200 200" xml:space="preserve"><g id="Python_Powered_Log"><g id="Pythons_1_" transform="matrix(1.772991,0,0,1.772991,-1062.907,-953.6594)"><linearGradient id="Blue_3_" gradientUnits="userSpaceOnUse" x1="683.2234" y1="579.2504" x2="534.3567" y2="580.4339"><stop  offset="0" style="stop-color:#386B97"/><stop  offset="1" style="stop-color:#387AB1"/></linearGradient><path id="Blue_1_" fill="url(#Blue_3_)" d="M669.413,538.973c-9.35-1.539-19.375-1.368-27.193,0c-11.516,2.012-13.601,6.237-13.601,14.003v10.251h27.203v3.42h-27.203h-10.206c-7.909,0-14.831,4.718-16.997,13.661c-2.499,10.251-2.609,16.629,0,27.332c1.934,7.968,6.539,13.661,14.447,13.661h9.35v-12.292c0-8.883,7.778-16.74,17.007-16.74h27.193c7.567,0,13.601-6.156,13.601-13.671v-25.622C683.014,545.683,676.798,540.19,669.413,538.973z M640.517,556.396c-2.821,0-5.098-2.294-5.098-5.12c0-2.837,2.277-5.13,5.098-5.13c2.811,0,5.098,2.294,5.098,5.13C645.615,554.103,643.328,556.396,640.517,556.396z"/><linearGradient id="Yellow_3_" gradientUnits="userSpaceOnUse" x1="712.3032" y1="608.6663" x2="419.1937" y2="608.6663"><stop  offset="0" style="stop-color:#FFC937"/><stop  offset="1" style="stop-color:#FEE875"/></linearGradient><path id="Yellow_1_" fill="url(#Yellow_3_)" d="M710.217,580.308c-1.955-7.786-5.682-13.661-13.602-13.661H686.42v11.951c0,9.265-7.949,17.081-17.007,17.081h-27.193c-7.445,0-13.601,6.298-13.601,13.671v25.622c0,7.293,6.408,11.568,13.601,13.661c8.615,2.504,16.886,2.957,27.193,0c6.851-1.962,13.601-5.895,13.601-13.661v-10.251h-27.193v-3.421h27.193h13.601c7.909,0,10.851-5.472,13.602-13.661C713.058,599.21,712.937,591.123,710.217,580.308z M671.115,631.552c2.821,0,5.098,2.294,5.098,5.121c0,2.837-2.277,5.13-5.098,5.13c-2.811,0-5.098-2.294-5.098-5.13C666.017,633.846,668.304,631.552,671.115,631.552z"/></g></g></svg>